{
  "accessors": [
    {
      "bufferView": 2,
      "componentType": 5126,
      "count": 65532,
      "max": [
        30.786399841308594,
        43.06370162963867,
        25.697999954223633
      ],
      "min": [
        -21.587200164794922,
        3.0971899032592773,
        -19.499000549316406
      ],
      "type": "VEC3"
    },
    {
      "bufferView": 2,
      "byteOffset": 786384,
      "componentType": 5126,
      "count": 65532,
      "max": [
        0.9999186396598816,
        0.9999788999557495,
        0.9999872446060181
      ],
      "min": [
        -0.9998853802680969,
        -0.6915508508682251,
        -0.9110891222953796
      ],
      "type": "VEC3"
    },
    {
      "bufferView": 1,
      "componentType": 5126,
      "count": 65532,
      "max": [
        0.9670199751853943,
        0.9990530014038086
      ],
      "min": [
        0.0005224160267971456,
        0.0004120469093322754
      ],
      "type": "VEC2"
    },
    {
      "bufferView": 0,
      "componentType": 5125,
      "count": 342615,
      "type": "SCALAR"
    },
    {
      "bufferView": 2,
      "byteOffset": 1572768,
      "componentType": 5126,
      "count": 65532,
      "max": [
        28.659799575805664,
        42.609500885009766,
        21.941600799560547
      ],
      "min": [
        -25.57430076599121,
        1.2626900672912598,
        -28.906299591064453
      ],
      "type": "VEC3"
    },
    {
      "bufferView": 2,
      "byteOffset": 2359152,
      "componentType": 5126,
      "count": 65532,
      "max": [
        0.9999443292617798,
        0.9999510049819946,
        0.7656440138816833
      ],
      "min": [
        -0.999980092048645,
        -0.9999985098838806,
        -0.9999403357505798
      ],
      "type": "VEC3"
    },
    {
      "bufferView": 1,
      "byteOffset": 524256,
      "componentType": 5126,
      "count": 65532,
      "max": [
        0.996213972568512,
        0.9808560013771057
      ],
      "min": [
        0.024609399959445,
        0.014976024627685547
      ],
      "type": "VEC2"
    },
    {
      "bufferView": 0,
      "byteOffset": 1370460,
      "componentType": 5125,
      "count": 331941,
      "type": "SCALAR"
    },
    {
      "bufferView": 2,
      "byteOffset": 3145536,
      "componentType": 5126,
      "count": 65532,
      "max": [
        30.786399841308594,
        42.926300048828125,
        25.69540023803711
      ],
      "min": [
        -25.577999114990234,
        1.418839931488037,
        -28.888099670410156
      ],
      "type": "VEC3"
    },
    {
      "bufferView": 2,
      "byteOffset": 3931920,
      "componentType": 5126,
      "count": 65532,
      "max": [
        0.9997254610061646,
        0.9999788999557495,
        0.9999303817749023
      ],
      "min": [
        -0.9999866485595703,
        -0.9999281167984009,
        -0.9993981122970581
      ],
      "type": "VEC3"
    },
    {
      "bufferView": 1,
      "byteOffset": 1048512,
      "componentType": 5126,
      "count": 65532,
      "max": [
        0.999210000038147,
        0.9813920259475708
      ],
      "min": [
        0.00020282299374230206,
        0.009382903575897217
      ],
      "type": "VEC2"
    },
    {
      "bufferView": 0,
      "byteOffset": 2698224,
      "componentType": 5125,
      "count": 281565,
      "type": "SCALAR"
    },
    {
      "bufferView": 2,
      "byteOffset": 4718304,
      "componentType": 5126,
      "count": 415,
      "max": [
        13.94540023803711,
        36.141998291015625,
        -21.7593994140625
      ],
      "min": [
        4.571899890899658,
        24.60260009765625,
        -23.62779998779297
      ],
      "type": "VEC3"
    },
    {
      "bufferView": 2,
      "byteOffset": 4723284,
      "componentType": 5126,
      "count": 415,
      "max": [
        0.8749299049377441,
        0.9999448657035828,
        0.6324204802513123
      ],
      "min": [
        -0.3809988498687744,
        -0.7310188412666321,
        -0.9578207731246948
      ],
      "type": "VEC3"
    },
    {
      "bufferView": 1,
      "byteOffset": 1572768,
      "componentType": 5126,
      "count": 415,
      "max": [
        0.9994770288467407,
        0.6647239923477173
      ],
      "min": [
        0.1496099978685379,
        0.09581959247589111
      ],
      "type": "VEC2"
    },
    {
      "bufferView": 0,
      "byteOffset": 3824484,
      "componentType": 5125,
      "count": 849,
      "type": "SCALAR"
    }
  ],
  "asset": {
    "extras": {
      "author": "SensibleDesign (https://sketchfab.com/sensibledesign)",
      "license": "CC-BY-4.0 (http://creativecommons.org/licenses/by/4.0/)",
      "source": "https://sketchfab.com/3d-models/rubber-duck-3d-scan-ead0a5b7b0ba4a6299a60fd77d85f99a",
      "title": "Rubber Duck 3D Scan"
    },
    "generator": "Sketchfab-12.67.0",
    "version": "2.0"
  },
  "bufferViews": [
    {
      "buffer": 0,
      "byteLength": 3827880,
      "name": "floatBufferViews",
      "target": 34963
    },
    {
      "buffer": 0,
      "byteLength": 1576088,
      "byteOffset": 3827880,
      "byteStride": 8,
      "name": "floatBufferViews",
      "target": 34962
    },
    {
      "buffer": 0,
      "byteLength": 4728264,
      "byteOffset": 5403968,
      "byteStride": 12,
      "name": "floatBufferViews",
      "target": 34962
    }
  ],
  "buffers": [
    {
      "byteLength": 10132232,
      "uri": "scene.bin"
    }
  ],
  "images": [
    {
      "uri": "textures/01___default_baseColor.png"
    }
  ],
  "materials": [
    {
      "doubleSided": true,
      "name": "01___default",
      "pbrMetallicRoughness": {
        "baseColorTexture": {
          "index": 0
        },
        "metallicFactor": 0.0,
        "roughnessFactor": 0.9524317153998911
      }
    }
  ],
  "meshes": [
    {
      "name": "defaultMaterial",
      "primitives": [
        {
          "attributes": {
            "NORMAL": 1,
            "POSITION": 0,
            "TEXCOORD_0": 2
          },
          "indices": 3,
          "material": 0,
          "mode": 4
        }
      ]
    },
    {
      "name": "defaultMaterial",
      "primitives": [
        {
          "attributes": {
            "NORMAL": 5,
            "POSITION": 4,
            "TEXCOORD_0": 6
          },
          "indices": 7,
          "material": 0,
          "mode": 4
        }
      ]
    },
    {
      "name": "defaultMaterial",
      "primitives": [
        {
          "attributes": {
            "NORMAL": 9,
            "POSITION": 8,
            "TEXCOORD_0": 10
          },
          "indices": 11,
          "material": 0,
          "mode": 4
        }
      ]
    },
    {
      "name": "defaultMaterial",
      "primitives": [
        {
          "attributes": {
            "NORMAL": 13,
            "POSITION": 12,
            "TEXCOORD_0": 14
          },
          "indices": 15,
          "material": 0,
          "mode": 4
        }
      ]
    }
  ],
  "nodes": [
    {
      "children": [
        1
      ],
      "matrix": [
        1.0,
        0.0,
        0.0,
        0.0,
        0.0,
        2.220446049250313e-16,
        -1.0,
        0.0,
        0.0,
        1.0,
        2.220446049250313e-16,
        0.0,
        0.0,
        0.0,
        0.0,
        1.0
      ],
      "name": "Sketchfab_model"
    },
    {
      "children": [
        2
      ],
      "matrix": [
        1.0,
        0.0,
        0.0,
        0.0,
        0.0,
        -4.371139006309477e-08,
        0.999999999999999,
        0.0,
        0.0,
        -0.999999999999999,
        -4.371139006309477e-08,
        0.0,
        0.0,
        0.0,
        0.0,
        1.0
      ],
      "name": "Collada visual scene group"
    },
    {
      "children": [
        3,
        4,
        5,
        6
      ],
      "name": "defaultobject"
    },
    {
      "mesh": 0,
      "name": "defaultMaterial"
    },
    {
      "mesh": 1,
      "name": "defaultMaterial"
    },
    {
      "mesh": 2,
      "name": "defaultMaterial"
    },
    {
      "mesh": 3,
      "name": "defaultMaterial"
    }
  ],
  "samplers": [
    {
      "magFilter": 9729,
      "minFilter": 9987,
      "wrapS": 10497,
      "wrapT": 10497
    }
  ],
  "scene": 0,
  "scenes": [
    {
      "name": "Sketchfab_Scene",
      "nodes": [
        0
      ]
    }
  ],
  "textures": [
    {
      "sampler": 0,
      "source": 0
    }
  ]
}
